<mxfile host="app.diagrams.net" modified="2024-04-13T17:26:40.147Z" agent="Mozilla/5.0 (Windows NT 10.0; Win64; x64; rv:124.0) Gecko/20100101 Firefox/124.0" version="23.0.1" etag="ZqPI5Mx2ViqNuPpUi97s" type="github">
  <diagram name="Page-1" id="xr-_np5zV6fQguH4kdrH">
    <mxGraphModel>
      <root>
        <mxCell id="0" />
        <mxCell id="1" parent="0" />
      </root>
    </mxGraphModel>
  </diagram>
</mxfile>
